# xmcd
#
# Track frame offsets:
#	150
#	14662
#	26375
#	38237
#	49817
#	59707
#	70270
#	84010
#	99010
#	111562
#	123372
#	137227
#	152090
#	160992
#	174747
#	188212
#	201875
#	213572
#	222567
#	233385
#
# Disc length: 3265 seconds
#
# Revision: 0
# Processed by: cddbd v1.5PL3 Copyright (c) Steve Scherf et al.
# Submitted via: dBpowerAMP V4.0
#
DISCID=1f0cbf14
DTITLE=Willie Nelson and Tennessee - The World Of Willie Nelson
DYEAR=1987
DGENRE=Country
TTITLE0=Will You Remember Mine
TTITLE1=Some Other Time
TTITLE2=I Hope So
TTITLE3=Is There Something On Your Mind
TTITLE4=Broken Promises
TTITLE5=Blame It On The Times
TTITLE6=Train To Santa Fe (Instrumental)
TTITLE7=Face Of A Fighter
TTITLE8=Shelter Of Your Arms
TTITLE9=End Of Understanding
TTITLE10=Home Is Where You're Happy
TTITLE11=And So Will You My Love
TTITLE12=Waiting Time
TTITLE13=Kentucky Sundown (Instrumental)
TTITLE14=No Tomorrow In Sight
TTITLE15=Everything But You
TTITLE16=Hapiness Lives Next Door
TTITLE17=Right From Wrong
TTITLE18=Go Away
TTITLE19=I'll Stay Around
EXTD=
EXTT0=
EXTT1=
EXTT2=
EXTT3=
EXTT4=
EXTT5=
EXTT6=
EXTT7=
EXTT8=
EXTT9=
EXTT10=
EXTT11=
EXTT12=
EXTT13=
EXTT14=
EXTT15=
EXTT16=
EXTT17=
EXTT18=
EXTT19=
PLAYORDER=
